# xmcd
#
# Track frame offsets:
#	150
#	16296
#	32442
#	45371
#	60502
#	74205
#	89226
#	105053
#	124426
#	149861
#	173174
#	189492
#	207125
#	223706
#
# Disc length: 3374 seconds
#
# Revision: 0
# Processed by: cddbd v1.5.1PL0 Copyright (c) Steve Scherf et al.
# Submitted via: dBpowerAMP V4.0
#
DISCID=d00d2c0e
DTITLE=Dolly Parton - Halos and Horns
DYEAR=2002
DGENRE=Country
TTITLE0=Halos and Horns
TTITLE1=Sugar Hill
TTITLE2=Not For Me
TTITLE3=Hello God
TTITLE4=If
TTITLE5=Shattered Image
TTITLE6=These Old Bones
TTITLE7=What A Heartache
TTITLE8=I'm Gone
TTITLE9=Raven Dove
TTITLE10=Dagger Through The Heart
TTITLE11=If Only
TTITLE12=John Daniel
TTITLE13=Stairway To Heaven
EXTD=
EXTT0=
EXTT1=
EXTT2=
EXTT3=
EXTT4=
EXTT5=
EXTT6=
EXTT7=
EXTT8=
EXTT9=
EXTT10=
EXTT11=
EXTT12=
EXTT13=
PLAYORDER=
